<svg width="60" height="60" fill="none" xmlns="http://www.w3.org/2000/svg"><g clip-path="url(#clip0_7_624)" fill="#FF3D00"><path d="M2 47.086V3c0-.551.449-1 1-1h40.875c.551 0 1 .449 1 1v2.625H25.5a6.758 6.758 0 00-6.75 6.75 6.758 6.758 0 006.75 6.75h19.375v1.438a1 1 0 002 0v-2.438a1 1 0 00-1-1H25.5c-2.62 0-4.75-2.13-4.75-4.75s2.13-4.75 4.75-4.75h27.75c2.62 0 4.75 2.13 4.75 4.75s-2.13 4.75-4.75 4.75h-2.262a1 1 0 000 2h2.262a6.758 6.758 0 006.75-6.75 6.758 6.758 0 00-6.75-6.75h-6.375V3c0-1.654-1.346-3-3-3H3C1.346 0 0 1.346 0 3v44.5a1 1 0 00.293.707l6.085 6.085a1 1 0 101.414-1.414L2 47.086z"/><path d="M53.25 23.25H25.5A6.758 6.758 0 0018.75 30a6.758 6.758 0 006.75 6.75h15.093a1 1 0 000-2H25.5c-2.62 0-4.75-2.13-4.75-4.75s2.13-4.75 4.75-4.75h27.75c2.62 0 4.75 2.13 4.75 4.75s-2.13 4.75-4.75 4.75h-7.375a1 1 0 00-1 1v2.698a1 1 0 002 0V36.75h6.375A6.758 6.758 0 0060 30a6.758 6.758 0 00-6.75-6.75zm0 17.625H25.5a6.758 6.758 0 00-6.75 6.75 6.758 6.758 0 006.75 6.75h19.375V57c0 .551-.449 1-1 1H13.5v-8.5c0-1.654-1.346-3-3-3H6.75a1 1 0 000 2h3.75c.551 0 1 .449 1 1V59a1 1 0 001 1h31.375c1.654 0 3-1.346 3-3v-3.625a1 1 0 00-1-1H25.5c-2.62 0-4.75-2.13-4.75-4.75s2.13-4.75 4.75-4.75h27.75c2.62 0 4.75 2.13 4.75 4.75s-2.13 4.75-4.75 4.75h-1.9a1 1 0 000 2h1.9a6.758 6.758 0 006.75-6.75 6.758 6.758 0 00-6.75-6.75zM10.25 28a1 1 0 001-1V14.998a4.007 4.007 0 003-3.873c0-2.206-1.794-4-4-4s-4 1.794-4 4a1 1 0 102 0c0-1.103.897-2 2-2s2 .897 2 2-.897 2-2 2a1 1 0 00-1 1v12.002a4.007 4.007 0 00-3 3.873 4.007 4.007 0 003 3.873V42.5a1 1 0 102 0v-8.627a4.007 4.007 0 003-3.873 1 1 0 00-2 0c0 1.103-.897 2-2 2s-2-.897-2-2 .897-2 2-2zm29.125-13.625a2 2 0 100-4 2 2 0 000 4zm-9.375 0a2 2 0 100-4 2 2 0 000 4z"/><path d="M39.375 32a2 2 0 100-4 2 2 0 000 4zM30 32a2 2 0 100-4 2 2 0 000 4zm18.75 0a2 2 0 100-4 2 2 0 000 4zM30 49.5a2 2 0 100-4 2 2 0 000 4zm9.375 0a2 2 0 100-4 2 2 0 000 4z"/></g><defs><clipPath id="clip0_7_624"><path fill="#fff" d="M0 0h60v60H0z"/></clipPath></defs></svg>