<svg width="60" height="60" fill="none" xmlns="http://www.w3.org/2000/svg"><path d="M56.953 30c.469 0 .797-.375.844-.797V18.984c0-.468-.375-.797-.844-.843h-2.25l-.984-6.704c-.047-.468-.469-.75-.938-.703L40.078 12.61h-.047L2.906 18.187s-.703.141-.703.797v10.172c0 .469.375.797.797.844a3.681 3.681 0 013.703 3.703A3.681 3.681 0 013 37.406c-.469 0-.797.375-.844.797v10.172c0 .469.375.797.844.844h53.906c.469 0 .797-.375.844-.844V38.25c0-.469-.375-.797-.797-.844a3.681 3.681 0 01-3.703-3.703A3.681 3.681 0 0156.953 30zM39.47 14.39l.328 2.204a.805.805 0 00.797.703h.14c.47-.047.75-.469.703-.938l-.328-2.203 11.11-1.64.843 5.671H14.11l25.36-3.796zM56.156 39v8.625h-12.14v-2.25a.84.84 0 00-.844-.844.84.84 0 00-.844.844v2.25H3.891V39c2.906-.469 4.921-3.188 4.453-6.094-.375-2.297-2.156-4.125-4.453-4.453v-8.625h38.484v2.203a.84.84 0 00.844.844.84.84 0 00.843-.844v-2.25h12.141v8.625c-2.906.469-4.922 3.188-4.453 6.094.281 2.344 2.063 4.125 4.406 4.5z" fill="#FF3D00"/><path d="M43.172 34.969c-.469 0-.797.375-.844.797v5.437a.84.84 0 00.844.844.84.84 0 00.844-.844v-5.39a.84.84 0 00-.844-.844zm0-9.563c-.469 0-.797.375-.844.797v5.438a.84.84 0 00.844.843.84.84 0 00.844-.843v-5.438c0-.422-.375-.797-.844-.797zM12.797 26.72h10.172a.84.84 0 00.843-.844c0-.469-.375-.797-.843-.797H12.797a.84.84 0 00-.844.844c0 .469.375.797.844.797zm20.343 3.56H12.797a.84.84 0 00-.844.844.84.84 0 00.844.844H33.14a.84.84 0 00.843-.844.84.84 0 00-.843-.844zm0 5.203H12.797a.84.84 0 00-.844.844.84.84 0 00.844.844H33.14a.84.84 0 00.843-.844.84.84 0 00-.843-.844zm0 5.203H12.797a.84.84 0 00-.844.844.84.84 0 00.844.844H33.14a.84.84 0 00.843-.844.84.84 0 00-.843-.843z" fill="#FF3D00"/></svg>