<svg width="60" height="60" fill="none" xmlns="http://www.w3.org/2000/svg"><path d="M15.3 1.523c-1.721 0-3.07 1.003-3.07 2.283v2.511H6.603a3.729 3.729 0 00-3.724 3.725v44.713a3.727 3.727 0 003.724 3.722H53.4a3.726 3.726 0 003.721-3.722V10.042A3.727 3.727 0 0053.4 6.317h-5.63v-2.51c0-1.28-1.348-2.284-3.067-2.284-1.722 0-3.07 1.003-3.07 2.283v2.511H33.07v-2.51c0-1.28-1.348-2.284-3.07-2.284-1.721 0-3.07 1.003-3.07 2.283v2.511h-8.56v-2.51c0-1.28-1.348-2.284-3.07-2.284zM14.105 3.82c.057-.123.488-.422 1.195-.422.708 0 1.139.3 1.196.422v2.497h-2.391V3.82zM4.753 18.035h50.493v27.897h-6.988a.937.937 0 00-.938.937v6.989H6.603a1.852 1.852 0 01-1.85-1.85V18.035zM53.92 47.807l-4.725 4.725v-4.726h4.725zm-.52 8.795H6.603a1.853 1.853 0 01-1.772-1.319c.544.296 1.153.45 1.772.45h41.655a.938.938 0 00.663-.275l6.326-6.326v5.623a1.849 1.849 0 01-1.847 1.847zM43.508 3.82c.056-.122.486-.421 1.195-.421.707 0 1.137.299 1.192.421v2.497h-2.387V3.82zm-14.703 0c.057-.122.487-.422 1.195-.422.708 0 1.138.3 1.195.422v2.497h-2.39V3.82zM30 12.165a.937.937 0 100-1.875c-.705 0-1.137-.3-1.195-.423V8.192h12.828v1.69c0 1.28 1.348 2.283 3.07 2.283a.937.937 0 100-1.875c-.706 0-1.138-.3-1.195-.422V8.192H53.4a1.85 1.85 0 011.846 1.85v6.118H4.754v-6.118a1.852 1.852 0 011.85-1.85h5.626v1.69c0 1.28 1.349 2.283 3.07 2.283a.938.938 0 000-1.875c-.705 0-1.136-.3-1.195-.423V8.192H26.93v1.69c0 1.28 1.349 2.283 3.07 2.283zm-7.803 17.022h4.77a.937.937 0 00.938-.938V24.04a.937.937 0 00-.938-.937h-4.77a.938.938 0 00-.938.937v4.21a.937.937 0 00.938.937zm.937-4.21h2.896v2.335h-2.896v-2.334zm9.899 4.21h4.77a.937.937 0 00.938-.938V24.04a.937.937 0 00-.938-.937h-4.77a.938.938 0 00-.938.937v4.21a.937.937 0 00.938.937zm.938-4.21h2.895v2.335H33.97v-2.334zM11.36 39.486h4.773a.937.937 0 00.938-.938v-4.205a.938.938 0 00-.938-.938H11.36a.937.937 0 00-.938.938v4.205a.937.937 0 00.938.938zm.937-4.206h2.899v2.33h-2.899v-2.33zm9.899 4.206h4.77a.937.937 0 00.938-.938v-4.205a.937.937 0 00-.938-.938h-4.77a.938.938 0 00-.938.938v4.205a.937.937 0 00.938.938zm.937-4.206h2.896v2.33h-2.896v-2.33zm9.899 4.206h4.77a.937.937 0 00.938-.938v-4.205a.937.937 0 00-.938-.938h-4.77a.938.938 0 00-.938.938v4.205a.937.937 0 00.938.938zm.938-4.206h2.895v2.33H33.97v-2.33zM11.36 49.783h4.773a.938.938 0 00.938-.938V44.64a.937.937 0 00-.938-.938H11.36a.937.937 0 00-.938.938v4.206a.938.938 0 00.938.937zm.937-4.206h2.899v2.331h-2.899v-2.33zm9.899 4.206h4.77a.938.938 0 00.938-.938V44.64a.937.937 0 00-.938-.938h-4.77a.938.938 0 00-.938.938v4.206a.938.938 0 00.938.937zm.937-4.206h2.896v2.331h-2.896v-2.33zM11.36 29.187h4.773a.937.937 0 00.938-.938V24.04a.938.938 0 00-.938-.937H11.36a.937.937 0 00-.938.937v4.21a.937.937 0 00.938.937zm.937-4.21h2.899v2.335h-2.899v-2.334zm36.342 8.427h-4.77a.938.938 0 00-.938.938v4.205a.937.937 0 00.937.938h4.77a.937.937 0 00.938-.938v-4.205a.938.938 0 00-.937-.938zm-.938 4.206h-2.895v-2.33h2.895v2.33zM33.033 49.783h4.77a.938.938 0 00.938-.938V44.64a.937.937 0 00-.938-.938h-4.77a.938.938 0 00-.938.938v4.206a.938.938 0 00.938.937zm.938-4.206h2.895v2.331H33.97v-2.33zm9.105-18.842a.938.938 0 111.321-1.33l1.207 1.198 2.453-2.9a.938.938 0 011.431 1.212L46.38 28.59a.937.937 0 01-.676.331l-.04.001a.937.937 0 01-.66-.272l-1.927-1.914z" fill="#FF3D00"/></svg>