<svg width="60" height="60" fill="none" xmlns="http://www.w3.org/2000/svg"><g clip-path="url(#clip0_7_644)" fill="#FF3D00"><path d="M59.764 33.135L49.443 5.002a3.835 3.835 0 00-4.916-2.276L4.61 17.37a3.843 3.843 0 00-2.443 2.892A3.835 3.835 0 000 23.712v29.966a3.835 3.835 0 003.83 3.83h42.52a3.835 3.835 0 003.831-3.83V40.731l7.306-2.68a3.828 3.828 0 002.277-4.916zM46.351 55.509H3.83a1.832 1.832 0 01-1.831-1.83V23.711c0-1.01.821-1.83 1.83-1.83h42.52c1.01 0 1.831.82 1.831 1.83v1.51h-9.45c-3.161 0-5.111 2.37-5.111 5.143 0 2.556 1.755 5.144 5.111 5.144h9.452v18.17c0 1.009-.82 1.83-1.83 1.83zm1.83-22H38.73c-2.15 0-3.111-1.58-3.111-3.144s.962-3.142 3.111-3.142h9.452v6.286zm8.618 2.664L50.18 38.6V23.712a3.835 3.835 0 00-3.83-3.83H4.457c.212-.29.504-.51.84-.633l39.92-14.646c.949-.348 2 .138 2.348 1.088l1.12 3.05-20.32 7.456a1 1 0 00.689 1.877l20.32-7.455 1.763 4.809-4.14 1.518a1 1 0 10.69 1.878l4.14-1.519 6.06 16.519c.348.95-.139 2-1.088 2.349z"/><path d="M8.665 39.617h5.98a2.89 2.89 0 002.888-2.887v-3.622a2.89 2.89 0 00-2.887-2.887h-5.98a2.89 2.89 0 00-2.888 2.887v3.622a2.89 2.89 0 002.887 2.887zm-.887-6.508c0-.49.398-.888.887-.888h5.98a.89.89 0 01.888.888v3.621a.888.888 0 01-.887.887h-5.98a.888.888 0 01-.888-.887v-3.62zm30.865 10.633h-15.19a1 1 0 000 2h15.19a1 1 0 100-2zm-23.818 1a1 1 0 001 1h2.884a1 1 0 100-2h-2.884a1 1 0 00-1 1zm-8.047 1h4.558a1 1 0 100-2H6.778a1 1 0 000 2zm18.84 4.437H6.777a1 1 0 100 2h18.84a1 1 0 100-2z"/></g><defs><clipPath id="clip0_7_644"><path fill="#fff" d="M0 0h60v60H0z"/></clipPath></defs></svg>