<svg width="28" height="31" viewBox="0 0 28 31" fill="none" xmlns="http://www.w3.org/2000/svg">
<path d="M14 0.828857C9.63834 0.828857 6.08984 4.37735 6.08984 8.73901C6.08984 13.1007 9.63834 16.6492 14 16.6492C18.3617 16.6492 21.9102 13.1007 21.9102 8.73901C21.9102 4.37735 18.3617 0.828857 14 0.828857ZM23.8418 21.8168C21.6761 19.6179 18.8052 18.407 15.7578 18.407H12.2422C9.19484 18.407 6.32387 19.6179 4.15824 21.8168C2.00322 24.005 0.816406 26.8933 0.816406 29.95C0.816406 30.4353 1.20992 30.8289 1.69531 30.8289H26.3047C26.7901 30.8289 27.1836 30.4353 27.1836 29.95C27.1836 26.8933 25.9968 24.005 23.8418 21.8168Z" fill="#FF3D00"/>
</svg>
