<svg width="21" height="20" viewBox="0 0 21 20" fill="none" xmlns="http://www.w3.org/2000/svg">
<g clip-path="url(#clip0_7_563)">
<path d="M10.5 0C8.51169 0.00264579 6.60557 0.793672 5.19962 2.19962C3.79367 3.60557 3.00265 5.51169 3 7.5C3 12.8844 9.9875 19.6281 10.2844 19.9125C10.3421 19.9686 10.4195 20 10.5 20C10.5805 20 10.6579 19.9686 10.7156 19.9125C11.0125 19.6281 18 12.8844 18 7.5C17.9974 5.51169 17.2063 3.60557 15.8004 2.19962C14.3944 0.793672 12.4883 0.00264579 10.5 0ZM10.5 10.9375C9.82013 10.9375 9.15552 10.7359 8.59023 10.3582C8.02493 9.98046 7.58434 9.4436 7.32416 8.81548C7.06399 8.18735 6.99591 7.49619 7.12855 6.82938C7.26119 6.16257 7.58858 5.55006 8.06932 5.06932C8.55006 4.58858 9.16257 4.26119 9.82938 4.12855C10.4962 3.99591 11.1874 4.06399 11.8155 4.32416C12.4436 4.58434 12.9805 5.02493 13.3582 5.59023C13.7359 6.15552 13.9375 6.82013 13.9375 7.5C13.9369 8.4115 13.5746 9.28551 12.93 9.93004C12.2855 10.5746 11.4115 10.9369 10.5 10.9375Z" fill="#FF3D00"/>
</g>
<defs>
<clipPath id="clip0_7_563">
<rect width="20" height="20" fill="white" transform="translate(0.5)"/>
</clipPath>
</defs>
</svg>
