<svg width="30" height="30" viewBox="0 0 30 30" fill="none" xmlns="http://www.w3.org/2000/svg">
<g clip-path="url(#clip0_9_189)">
<path d="M13.8281 1.17187L13.8281 13.8281L1.17187 13.8281C0.524648 13.8281 -6.83962e-07 14.3528 -6.55671e-07 15C-6.2738e-07 15.6472 0.524648 16.1719 1.17187 16.1719L13.8281 16.1719L13.8281 28.8281C13.8281 29.4754 14.3528 30 15 30C15.6472 30 16.1719 29.4754 16.1719 28.8281L16.1719 16.1719L28.8281 16.1719C29.4754 16.1719 30 15.6472 30 15C30 14.3528 29.4754 13.8281 28.8281 13.8281L16.1719 13.8281L16.1719 1.17187C16.1719 0.524648 15.6472 -6.83962e-07 15 -6.55671e-07C14.3528 -6.2738e-07 13.8281 0.524648 13.8281 1.17187Z" fill="#201D03"/>
</g>
<defs>
<clipPath id="clip0_9_189">
<rect width="30" height="30" fill="white"/>
</clipPath>
</defs>
</svg>
