<svg width="60" height="60" viewBox="0 0 60 60" fill="none" xmlns="http://www.w3.org/2000/svg">
<path d="M15.3003 1.52344C13.5788 1.52344 12.23 2.52621 12.23 3.80637V6.31699H6.60348C5.61599 6.31814 4.66928 6.71093 3.97103 7.4092C3.27279 8.10747 2.88002 9.05419 2.87891 10.0417V54.7553C2.88049 55.7423 3.27351 56.6884 3.97175 57.386C4.67 58.0837 5.61645 58.4758 6.60348 58.4766H53.4C54.3866 58.4754 55.3324 58.083 56.0301 57.3854C56.7277 56.6878 57.1201 55.7419 57.1212 54.7553V10.0417C57.1206 9.05463 56.7284 8.10815 56.0308 7.40988C55.3331 6.71161 54.387 6.31857 53.4 6.31699H47.7699V3.80637C47.7699 2.52621 46.4223 1.52344 44.703 1.52344C42.9814 1.52344 41.6327 2.52621 41.6327 3.80637V6.31699H33.0704V3.80637C33.0704 2.52621 31.7217 1.52344 30.0001 1.52344C28.2785 1.52344 26.9298 2.52621 26.9298 3.80637V6.31699H18.3704V3.80637C18.3705 2.52621 17.0219 1.52344 15.3003 1.52344ZM14.105 3.82031C14.1617 3.6975 14.5926 3.39844 15.3003 3.39844C16.008 3.39844 16.4388 3.6975 16.4956 3.82031V6.31699H14.105V3.82031ZM4.75344 18.0352H55.2462V45.9316H48.2579C48.0092 45.9316 47.7708 46.0304 47.595 46.2062C47.4192 46.382 47.3204 46.6205 47.3204 46.8691V53.8579H6.60348C6.11302 53.8573 5.64281 53.6622 5.29605 53.3154C4.94929 52.9685 4.75431 52.4983 4.75391 52.0078L4.75344 18.0352ZM53.92 47.8066L49.1954 52.5318V47.8064L53.92 47.8066ZM53.4 56.6016H6.60348C6.20562 56.6013 5.81842 56.4729 5.49917 56.2355C5.17993 55.9981 4.94561 55.6642 4.8309 55.2832C5.37488 55.5789 5.98433 55.7334 6.60348 55.7326H48.2579C48.5066 55.7326 48.745 55.6338 48.9209 55.458L55.2466 49.1323V54.7553C55.246 55.2448 55.0513 55.7142 54.7051 56.0603C54.3589 56.4064 53.8895 56.6011 53.4 56.6016ZM43.5078 3.82031C43.5637 3.69785 43.994 3.39902 44.7031 3.39902C45.4102 3.39902 45.8398 3.69785 45.895 3.8202V6.31699H43.5079L43.5078 3.82031ZM28.8048 3.82031C28.8616 3.69762 29.2924 3.39844 30.0001 3.39844C30.7078 3.39844 31.1384 3.6975 31.1954 3.82031V6.31699H28.8048V3.82031ZM30.0001 12.1652C30.2487 12.1652 30.4872 12.0665 30.663 11.8906C30.8388 11.7148 30.9376 11.4764 30.9376 11.2277C30.9376 10.9791 30.8388 10.7406 30.663 10.5648C30.4872 10.389 30.2487 10.2902 30.0001 10.2902C29.2951 10.2902 28.8634 9.9907 28.8048 9.86719V8.19199H41.6328V9.88219C41.6328 11.1623 42.9814 12.1651 44.7031 12.1651C44.9518 12.1651 45.1902 12.0663 45.366 11.8905C45.5419 11.7147 45.6406 11.4763 45.6406 11.2276C45.6406 10.979 45.5419 10.7405 45.366 10.5647C45.1902 10.3889 44.9518 10.2901 44.7031 10.2901C43.9966 10.2901 43.5653 9.99082 43.5078 9.86766V8.19187H53.4C53.8899 8.19287 54.3595 8.38817 54.7056 8.73494C55.0517 9.0817 55.2462 9.55161 55.2462 10.0416V16.1602H4.75391V10.0417C4.7544 9.55128 4.94942 9.08112 5.29617 8.73434C5.64292 8.38757 6.11308 8.19252 6.60348 8.19199H12.2302V9.88219C12.2302 11.1623 13.5788 12.1651 15.3005 12.1651C15.5492 12.1651 15.7876 12.0663 15.9635 11.8905C16.1393 11.7147 16.238 11.4763 16.238 11.2276C16.238 10.979 16.1393 10.7405 15.9635 10.5647C15.7876 10.3889 15.5492 10.2901 15.3005 10.2901C14.5955 10.2901 14.1638 9.99059 14.1052 9.86707V8.19199H26.9298V9.88219C26.9298 11.1623 28.2785 12.1652 30.0001 12.1652ZM22.1968 29.1868H26.9671C27.2158 29.1868 27.4542 29.0881 27.6301 28.9122C27.8059 28.7364 27.9046 28.498 27.9046 28.2493V24.0404C27.9046 23.7918 27.8059 23.5533 27.6301 23.3775C27.4542 23.2017 27.2158 23.1029 26.9671 23.1029H22.1968C21.9482 23.1029 21.7097 23.2017 21.5339 23.3775C21.3581 23.5533 21.2593 23.7918 21.2593 24.0404V28.2493C21.2593 28.498 21.3581 28.7364 21.5339 28.9122C21.7097 29.0881 21.9482 29.1868 22.1968 29.1868ZM23.1343 24.9779H26.0296V27.3118H23.1343V24.9779ZM33.033 29.1868H37.8032C38.0519 29.1868 38.2903 29.0881 38.4662 28.9122C38.642 28.7364 38.7407 28.498 38.7407 28.2493V24.0404C38.7407 23.7918 38.642 23.5533 38.4662 23.3775C38.2903 23.2017 38.0519 23.1029 37.8032 23.1029H33.033C32.7844 23.1029 32.5459 23.2017 32.3701 23.3775C32.1943 23.5533 32.0955 23.7918 32.0955 24.0404V28.2493C32.0955 28.498 32.1943 28.7364 32.3701 28.9122C32.5459 29.0881 32.7844 29.1868 33.033 29.1868ZM33.9705 24.9779H36.8657V27.3118H33.9705V24.9779ZM11.3606 39.4849H16.1341C16.3827 39.4849 16.6212 39.3862 16.797 39.2103C16.9728 39.0345 17.0716 38.7961 17.0716 38.5474V34.3418C17.0716 34.0932 16.9728 33.8547 16.797 33.6789C16.6212 33.5031 16.3827 33.4043 16.1341 33.4043H11.3606C11.1119 33.4043 10.8735 33.5031 10.6977 33.6789C10.5219 33.8547 10.4231 34.0932 10.4231 34.3418V38.5474C10.4231 38.7961 10.5219 39.0345 10.6977 39.2103C10.8735 39.3862 11.1119 39.4849 11.3606 39.4849ZM12.2981 35.2793H15.1966V37.6099H12.2981V35.2793ZM22.1968 39.4849H26.9671C27.2158 39.4849 27.4542 39.3862 27.6301 39.2103C27.8059 39.0345 27.9046 38.7961 27.9046 38.5474V34.3418C27.9046 34.0932 27.8059 33.8547 27.6301 33.6789C27.4542 33.5031 27.2158 33.4043 26.9671 33.4043H22.1968C21.9482 33.4043 21.7097 33.5031 21.5339 33.6789C21.3581 33.8547 21.2593 34.0932 21.2593 34.3418V38.5474C21.2593 38.7961 21.3581 39.0345 21.5339 39.2103C21.7097 39.3862 21.9482 39.4849 22.1968 39.4849ZM23.1343 35.2793H26.0296V37.6099H23.1343V35.2793ZM33.033 39.4849H37.8032C38.0519 39.4849 38.2903 39.3862 38.4662 39.2103C38.642 39.0345 38.7407 38.7961 38.7407 38.5474V34.3418C38.7407 34.0932 38.642 33.8547 38.4662 33.6789C38.2903 33.5031 38.0519 33.4043 37.8032 33.4043H33.033C32.7844 33.4043 32.5459 33.5031 32.3701 33.6789C32.1943 33.8547 32.0955 34.0932 32.0955 34.3418V38.5474C32.0955 38.7961 32.1943 39.0345 32.3701 39.2103C32.5459 39.3862 32.7844 39.4849 33.033 39.4849ZM33.9705 35.2793H36.8657V37.6099H33.9705V35.2793ZM11.3606 49.783H16.1341C16.3827 49.783 16.6212 49.6842 16.797 49.5084C16.9728 49.3326 17.0716 49.0941 17.0716 48.8455V44.6399C17.0716 44.3912 16.9728 44.1528 16.797 43.977C16.6212 43.8012 16.3827 43.7024 16.1341 43.7024H11.3606C11.1119 43.7024 10.8735 43.8012 10.6977 43.977C10.5219 44.1528 10.4231 44.3912 10.4231 44.6399V48.8455C10.4231 49.0941 10.5219 49.3326 10.6977 49.5084C10.8735 49.6842 11.1119 49.783 11.3606 49.783ZM12.2981 45.5774H15.1966V47.908H12.2981V45.5774ZM22.1968 49.783H26.9671C27.2158 49.783 27.4542 49.6842 27.6301 49.5084C27.8059 49.3326 27.9046 49.0941 27.9046 48.8455V44.6399C27.9046 44.3912 27.8059 44.1528 27.6301 43.977C27.4542 43.8012 27.2158 43.7024 26.9671 43.7024H22.1968C21.9482 43.7024 21.7097 43.8012 21.5339 43.977C21.3581 44.1528 21.2593 44.3912 21.2593 44.6399V48.8455C21.2593 49.0941 21.3581 49.3326 21.5339 49.5084C21.7097 49.6842 21.9482 49.783 22.1968 49.783ZM23.1343 45.5774H26.0296V47.908H23.1343V45.5774ZM11.3606 29.1868H16.1341C16.3827 29.1868 16.6212 29.0881 16.797 28.9122C16.9728 28.7364 17.0716 28.498 17.0716 28.2493V24.0404C17.0716 23.7918 16.9728 23.5533 16.797 23.3775C16.6212 23.2017 16.3827 23.1029 16.1341 23.1029H11.3606C11.1119 23.1029 10.8735 23.2017 10.6977 23.3775C10.5219 23.5533 10.4231 23.7918 10.4231 24.0404V28.2493C10.4231 28.498 10.5219 28.7364 10.6977 28.9122C10.8735 29.0881 11.1119 29.1868 11.3606 29.1868ZM12.2981 24.9779H15.1966V27.3118H12.2981V24.9779ZM48.6396 33.4043H43.8692C43.6206 33.4043 43.3821 33.5031 43.2063 33.6789C43.0305 33.8547 42.9317 34.0932 42.9317 34.3418V38.5474C42.9317 38.7961 43.0305 39.0345 43.2063 39.2103C43.3821 39.3862 43.6206 39.4849 43.8692 39.4849H48.6396C48.8882 39.4849 49.1267 39.3862 49.3025 39.2103C49.4783 39.0345 49.5771 38.7961 49.5771 38.5474V34.3418C49.5771 34.0932 49.4783 33.8547 49.3025 33.6789C49.1267 33.5031 48.8882 33.4043 48.6396 33.4043ZM47.7021 37.6099H44.8067V35.2793H47.7021V37.6099ZM33.033 49.783H37.8032C38.0519 49.783 38.2903 49.6842 38.4662 49.5084C38.642 49.3326 38.7407 49.0941 38.7407 48.8455V44.6399C38.7407 44.3912 38.642 44.1528 38.4662 43.977C38.2903 43.8012 38.0519 43.7024 37.8032 43.7024H33.033C32.7844 43.7024 32.5459 43.8012 32.3701 43.977C32.1943 44.1528 32.0955 44.3912 32.0955 44.6399V48.8455C32.0955 49.0941 32.1943 49.3326 32.3701 49.5084C32.5459 49.6842 32.7844 49.783 33.033 49.783ZM33.9705 45.5774H36.8657V47.908H33.9705V45.5774ZM43.076 26.7353C42.9879 26.6487 42.9178 26.5455 42.8697 26.4318C42.8217 26.318 42.7965 26.1959 42.7958 26.0723C42.7951 25.9488 42.8187 25.8264 42.8655 25.7121C42.9122 25.5977 42.9811 25.4938 43.0681 25.4061C43.1551 25.3185 43.2586 25.2489 43.3727 25.2014C43.4867 25.1539 43.6089 25.1294 43.7324 25.1293C43.856 25.1292 43.9783 25.1535 44.0924 25.2008C44.2065 25.2481 44.3101 25.3175 44.3973 25.405L45.6036 26.603L48.057 23.7039C48.2177 23.5141 48.4471 23.3958 48.6949 23.3752C48.9427 23.3546 49.1885 23.4332 49.3783 23.5938C49.5681 23.7544 49.6863 23.9839 49.707 24.2317C49.7276 24.4795 49.649 24.7253 49.4884 24.9151L46.379 28.5892C46.2954 28.6881 46.1921 28.7685 46.0758 28.8255C45.9595 28.8825 45.8326 28.9147 45.7032 28.9202C45.6897 28.9202 45.6761 28.9211 45.6628 28.9211C45.4152 28.9211 45.1777 28.8232 45.0021 28.6487L43.076 26.7353Z" fill="#FF3D00"/>
</svg>
