<svg width="60" height="60" viewBox="0 0 60 60" fill="none" xmlns="http://www.w3.org/2000/svg">
<g clip-path="url(#clip0_7_644)">
<path d="M59.7642 33.135L49.4426 5.00226C48.7151 3.01966 46.51 1.99867 44.5273 2.72553L4.6087 17.3713C3.32996 17.8405 2.41247 18.9556 2.1656 20.2627C0.885116 20.8832 0 22.1962 0 23.7119V53.6782C0 55.7902 1.71836 57.5087 3.83046 57.5087H46.3509C48.4629 57.5087 50.1812 55.7904 50.1812 53.6782V40.7309L57.4875 38.0503C59.475 37.321 60.4935 35.1227 59.7642 33.135ZM46.3509 55.5087H3.83046C2.8211 55.5087 1.99998 54.6876 1.99998 53.6782V23.7119C1.99998 22.7027 2.8211 21.8815 3.83046 21.8815H46.3509C47.3601 21.8815 48.1812 22.7026 48.1812 23.7119V25.2228H38.729C35.568 25.2228 33.6179 27.5928 33.6179 30.3649C33.6179 32.921 35.3735 35.5086 38.729 35.5086H48.1812V53.6782C48.1812 54.6876 47.3601 55.5087 46.3509 55.5087ZM48.1812 33.5086H38.729C36.5799 33.5086 35.6179 31.9296 35.6179 30.3649C35.6179 28.8009 36.5799 27.2228 38.729 27.2228H48.1812V33.5086ZM56.7988 36.1726L50.1813 38.6004V23.7119C50.1813 21.6 48.463 19.8815 46.351 19.8815H4.45708C4.66917 19.5928 4.96145 19.3728 5.29757 19.2489L45.2163 4.60326C46.1656 4.25477 47.2165 4.74126 47.5651 5.69125L48.6842 8.74172L28.3648 16.1966C28.2415 16.2419 28.1284 16.3109 28.0318 16.3999C27.9352 16.4889 27.857 16.596 27.8018 16.7152C27.7466 16.8343 27.7154 16.9632 27.7101 17.0944C27.7047 17.2257 27.7252 17.3566 27.7704 17.4799C27.8156 17.6032 27.8847 17.7164 27.9737 17.813C28.0626 17.9096 28.1698 17.9877 28.2889 18.0429C28.4081 18.0981 28.537 18.1293 28.6682 18.1347C28.7994 18.1401 28.9304 18.1196 29.0537 18.0744L49.3731 10.6195L51.1372 15.4277L46.9976 16.9463C46.7486 17.0376 46.5461 17.2241 46.4346 17.4648C46.3232 17.7055 46.3119 17.9806 46.4032 18.2296C46.4945 18.4786 46.6811 18.6811 46.9217 18.7926C47.1624 18.904 47.4375 18.9153 47.6865 18.824L51.8262 17.3053L57.8866 33.824C58.235 34.7736 57.7485 35.8243 56.7988 36.1726Z" fill="#FF3D00"/>
<path d="M8.66529 39.6171H14.6456C16.2375 39.6171 17.5326 38.3221 17.5326 36.7301V33.1084C17.5326 31.5165 16.2375 30.2214 14.6456 30.2214H8.66529C7.07343 30.2214 5.77832 31.5164 5.77832 33.1084V36.7301C5.77832 38.3221 7.07343 39.6171 8.66529 39.6171ZM7.7783 33.1085C7.7783 32.6195 8.17617 32.2215 8.66529 32.2215H14.6456C15.1347 32.2215 15.5326 32.6195 15.5326 33.1085V36.7302C15.5326 37.2192 15.1347 37.6172 14.6456 37.6172H8.66529C8.17617 37.6172 7.7783 37.2192 7.7783 36.7302V33.1085ZM38.643 43.742H23.4525C23.1873 43.742 22.9329 43.8474 22.7454 44.0349C22.5579 44.2225 22.4525 44.4768 22.4525 44.742C22.4525 45.0072 22.5579 45.2616 22.7454 45.4491C22.9329 45.6367 23.1873 45.742 23.4525 45.742H38.643C38.9082 45.742 39.1625 45.6367 39.3501 45.4491C39.5376 45.2616 39.643 45.0072 39.643 44.742C39.643 44.4768 39.5376 44.2225 39.3501 44.0349C39.1625 43.8474 38.9082 43.742 38.643 43.742ZM14.825 44.742C14.825 45.0072 14.9303 45.2616 15.1179 45.4491C15.3054 45.6367 15.5598 45.742 15.825 45.742H18.7086C18.9738 45.742 19.2281 45.6367 19.4157 45.4491C19.6032 45.2616 19.7086 45.0072 19.7086 44.742C19.7086 44.4768 19.6032 44.2225 19.4157 44.0349C19.2281 43.8474 18.9738 43.742 18.7086 43.742H15.825C15.5598 43.742 15.3054 43.8474 15.1179 44.0349C14.9303 44.2225 14.825 44.4768 14.825 44.742ZM6.77831 45.742H11.3359C11.6011 45.742 11.8555 45.6367 12.043 45.4491C12.2305 45.2616 12.3359 45.0072 12.3359 44.742C12.3359 44.4768 12.2305 44.2225 12.043 44.0349C11.8555 43.8474 11.6011 43.742 11.3359 43.742H6.77831C6.5131 43.742 6.25875 43.8474 6.07121 44.0349C5.88368 44.2225 5.77832 44.4768 5.77832 44.742C5.77832 45.0072 5.88368 45.2616 6.07121 45.4491C6.25875 45.6367 6.5131 45.742 6.77831 45.742ZM25.6171 50.1789H6.77831C6.5131 50.1789 6.25875 50.2842 6.07121 50.4717C5.88368 50.6593 5.77832 50.9136 5.77832 51.1788C5.77832 51.4441 5.88368 51.6984 6.07121 51.8859C6.25875 52.0735 6.5131 52.1788 6.77831 52.1788H25.6171C25.8823 52.1788 26.1367 52.0735 26.3242 51.8859C26.5117 51.6984 26.6171 51.4441 26.6171 51.1788C26.6171 50.9136 26.5117 50.6593 26.3242 50.4717C26.1367 50.2842 25.8823 50.1789 25.6171 50.1789Z" fill="#FF3D00"/>
</g>
<defs>
<clipPath id="clip0_7_644">
<rect width="60" height="60" fill="white"/>
</clipPath>
</defs>
</svg>
