<svg width="60" height="60" viewBox="0 0 60 60" fill="none" xmlns="http://www.w3.org/2000/svg">
<g clip-path="url(#clip0_7_624)">
<path d="M2 47.0857V3C2 2.44862 2.44863 2 3 2H43.875C44.4264 2 44.875 2.44862 44.875 3V5.625H25.5C21.7781 5.625 18.75 8.653 18.75 12.375C18.75 16.097 21.7781 19.125 25.5 19.125H44.875V20.5625C44.875 20.8277 44.9804 21.0821 45.1679 21.2696C45.3554 21.4571 45.6098 21.5625 45.875 21.5625C46.1402 21.5625 46.3946 21.4571 46.5821 21.2696C46.7696 21.0821 46.875 20.8277 46.875 20.5625V18.125C46.875 17.8598 46.7696 17.6054 46.5821 17.4179C46.3946 17.2304 46.1402 17.125 45.875 17.125H25.5C22.8809 17.125 20.75 14.9941 20.75 12.375C20.75 9.75587 22.8809 7.625 25.5 7.625H53.25C55.8691 7.625 58 9.75587 58 12.375C58 14.9941 55.8691 17.125 53.25 17.125H50.9879C50.7227 17.125 50.4683 17.2304 50.2808 17.4179C50.0932 17.6054 49.9879 17.8598 49.9879 18.125C49.9879 18.3902 50.0932 18.6446 50.2808 18.8321C50.4683 19.0196 50.7227 19.125 50.9879 19.125H53.25C56.9719 19.125 60 16.097 60 12.375C60 8.653 56.9719 5.625 53.25 5.625H46.875V3C46.875 1.34587 45.5291 0 43.875 0H3C1.34588 0 6.63904e-10 1.34587 6.63904e-10 3V47.5C-4.78443e-06 47.6313 0.0258569 47.7614 0.0761086 47.8827C0.12636 48.004 0.200018 48.1143 0.292875 48.2071L6.37762 54.2917C6.47027 54.3855 6.58055 54.4601 6.70212 54.5111C6.82368 54.5621 6.95413 54.5886 7.08596 54.589C7.21779 54.5894 7.34841 54.5637 7.47028 54.5135C7.59216 54.4632 7.70289 54.3893 7.79612 54.2961C7.88934 54.2029 7.96321 54.0922 8.01348 53.9703C8.06376 53.8484 8.08943 53.7178 8.08904 53.586C8.08864 53.4542 8.06219 53.3237 8.01119 53.2021C7.96019 53.0806 7.88565 52.9703 7.79187 52.8776L2 47.0857Z" fill="#FF3D00"/>
<path d="M53.25 23.25H25.5C21.7781 23.25 18.75 26.278 18.75 30C18.75 33.722 21.7781 36.75 25.5 36.75H40.5928C40.858 36.75 41.1123 36.6446 41.2999 36.4571C41.4874 36.2696 41.5928 36.0152 41.5928 35.75C41.5928 35.4848 41.4874 35.2304 41.2999 35.0429C41.1123 34.8554 40.858 34.75 40.5928 34.75H25.5C22.8809 34.75 20.75 32.6191 20.75 30C20.75 27.3809 22.8809 25.25 25.5 25.25H53.25C55.8691 25.25 58 27.3809 58 30C58 32.6191 55.8691 34.75 53.25 34.75H45.875C45.6098 34.75 45.3554 34.8554 45.1679 35.0429C44.9804 35.2304 44.875 35.4848 44.875 35.75V38.4476C44.875 38.7128 44.9804 38.9672 45.1679 39.1547C45.3554 39.3423 45.6098 39.4476 45.875 39.4476C46.1402 39.4476 46.3946 39.3423 46.5821 39.1547C46.7696 38.9672 46.875 38.7128 46.875 38.4476V36.75H53.25C56.9719 36.75 60 33.722 60 30C60 26.278 56.9719 23.25 53.25 23.25ZM53.25 40.875H25.5C21.7781 40.875 18.75 43.903 18.75 47.625C18.75 51.347 21.7781 54.375 25.5 54.375H44.875V57C44.875 57.5514 44.4264 58 43.875 58H13.5V49.5C13.5 47.8458 12.1541 46.5 10.5 46.5H6.75C6.48478 46.5 6.23043 46.6054 6.04289 46.7929C5.85536 46.9804 5.75 47.2348 5.75 47.5C5.75 47.7652 5.85536 48.0196 6.04289 48.2071C6.23043 48.3946 6.48478 48.5 6.75 48.5H10.5C11.0514 48.5 11.5 48.9486 11.5 49.5V59C11.5 59.2652 11.6054 59.5196 11.7929 59.7071C11.9804 59.8946 12.2348 60 12.5 60H43.875C45.5291 60 46.875 58.6541 46.875 57V53.375C46.875 53.1098 46.7696 52.8554 46.5821 52.6679C46.3946 52.4804 46.1402 52.375 45.875 52.375H25.5C22.8809 52.375 20.75 50.2441 20.75 47.625C20.75 45.0059 22.8809 42.875 25.5 42.875H53.25C55.8691 42.875 58 45.0059 58 47.625C58 50.2441 55.8691 52.375 53.25 52.375H51.3509C51.0857 52.375 50.8313 52.4804 50.6438 52.6679C50.4562 52.8554 50.3509 53.1098 50.3509 53.375C50.3509 53.6402 50.4562 53.8946 50.6438 54.0821C50.8313 54.2696 51.0857 54.375 51.3509 54.375H53.25C56.9719 54.375 60 51.347 60 47.625C60 43.903 56.9719 40.875 53.25 40.875ZM10.25 28C10.5152 28 10.7696 27.8946 10.9571 27.7071C11.1446 27.5196 11.25 27.2652 11.25 27V14.9984C12.9732 14.5533 14.25 12.9854 14.25 11.125C14.25 8.91938 12.4556 7.125 10.25 7.125C8.04437 7.125 6.25 8.91938 6.25 11.125C6.25 11.3902 6.35536 11.6446 6.54289 11.8321C6.73043 12.0196 6.98478 12.125 7.25 12.125C7.51522 12.125 7.76957 12.0196 7.95711 11.8321C8.14464 11.6446 8.25 11.3902 8.25 11.125C8.25 10.0223 9.14725 9.125 10.25 9.125C11.3527 9.125 12.25 10.0223 12.25 11.125C12.25 12.2278 11.3527 13.125 10.25 13.125C9.98478 13.125 9.73043 13.2304 9.54289 13.4179C9.35536 13.6054 9.25 13.8598 9.25 14.125V26.1266C7.52675 26.5718 6.25 28.1395 6.25 30C6.25 31.8605 7.52675 33.4283 9.25 33.8734V42.5C9.25 42.7652 9.35536 43.0196 9.54289 43.2071C9.73043 43.3946 9.98478 43.5 10.25 43.5C10.5152 43.5 10.7696 43.3946 10.9571 43.2071C11.1446 43.0196 11.25 42.7652 11.25 42.5V33.8734C12.9732 33.4283 14.25 31.8604 14.25 30C14.25 29.7348 14.1446 29.4804 13.9571 29.2929C13.7696 29.1054 13.5152 29 13.25 29C12.9848 29 12.7304 29.1054 12.5429 29.2929C12.3554 29.4804 12.25 29.7348 12.25 30C12.25 31.1028 11.3527 32 10.25 32C9.14725 32 8.25 31.1028 8.25 30C8.25 28.8973 9.14725 28 10.25 28Z" fill="#FF3D00"/>
<path d="M39.375 14.375C40.4796 14.375 41.375 13.4796 41.375 12.375C41.375 11.2704 40.4796 10.375 39.375 10.375C38.2704 10.375 37.375 11.2704 37.375 12.375C37.375 13.4796 38.2704 14.375 39.375 14.375Z" fill="#FF3D00"/>
<path d="M30 14.375C31.1046 14.375 32 13.4796 32 12.375C32 11.2704 31.1046 10.375 30 10.375C28.8954 10.375 28 11.2704 28 12.375C28 13.4796 28.8954 14.375 30 14.375Z" fill="#FF3D00"/>
<path d="M39.375 32C40.4796 32 41.375 31.1046 41.375 30C41.375 28.8954 40.4796 28 39.375 28C38.2704 28 37.375 28.8954 37.375 30C37.375 31.1046 38.2704 32 39.375 32Z" fill="#FF3D00"/>
<path d="M30 32C31.1046 32 32 31.1046 32 30C32 28.8954 31.1046 28 30 28C28.8954 28 28 28.8954 28 30C28 31.1046 28.8954 32 30 32Z" fill="#FF3D00"/>
<path d="M48.75 32C49.8546 32 50.75 31.1046 50.75 30C50.75 28.8954 49.8546 28 48.75 28C47.6454 28 46.75 28.8954 46.75 30C46.75 31.1046 47.6454 32 48.75 32Z" fill="#FF3D00"/>
<path d="M30 49.5C31.1046 49.5 32 48.6046 32 47.5C32 46.3954 31.1046 45.5 30 45.5C28.8954 45.5 28 46.3954 28 47.5C28 48.6046 28.8954 49.5 30 49.5Z" fill="#FF3D00"/>
<path d="M39.375 49.5C40.4796 49.5 41.375 48.6046 41.375 47.5C41.375 46.3954 40.4796 45.5 39.375 45.5C38.2704 45.5 37.375 46.3954 37.375 47.5C37.375 48.6046 38.2704 49.5 39.375 49.5Z" fill="#FF3D00"/>
</g>
<defs>
<clipPath id="clip0_7_624">
<rect width="60" height="60" fill="white"/>
</clipPath>
</defs>
</svg>
