<svg width="60" height="60" viewBox="0 0 60 60" fill="none" xmlns="http://www.w3.org/2000/svg">
<path d="M56.9531 29.9999C57.4219 29.9999 57.75 29.6249 57.7969 29.2031V18.9843C57.7969 18.5156 57.4219 18.1874 56.9531 18.1406H54.7031L53.7187 11.4374C53.6719 10.9687 53.25 10.6874 52.7812 10.7343L40.0781 12.6093H40.0312L2.90625 18.1874C2.90625 18.1874 2.20312 18.3281 2.20312 18.9843V29.1562C2.20312 29.6249 2.57813 29.9531 3 29.9999C5.0625 29.9999 6.70312 31.6406 6.70312 33.7031C6.70312 35.7656 5.0625 37.4062 3 37.4062C2.53125 37.4062 2.20312 37.7812 2.15625 38.2031V48.3749C2.15625 48.8437 2.53125 49.1718 3 49.2187H56.9062C57.375 49.2187 57.7031 48.8437 57.75 48.3749V38.2499C57.75 37.7812 57.375 37.4531 56.9531 37.4062C54.8906 37.4062 53.25 35.7656 53.25 33.7031C53.25 31.6406 54.8906 29.9999 56.9531 29.9999ZM39.4687 14.3906L39.7969 16.5937C39.8438 17.0156 40.2187 17.2968 40.5937 17.2968H40.7344C41.2031 17.2499 41.4844 16.8281 41.4375 16.3593L41.1094 14.1562L52.2188 12.5156L53.0625 18.1874H14.1094L39.4687 14.3906ZM56.1562 38.9999V47.6249H44.0156V45.3749C44.0156 44.9062 43.6406 44.5312 43.1719 44.5312C42.7031 44.5312 42.3281 44.9062 42.3281 45.3749V47.6249H3.89062V38.9999C6.79687 38.5312 8.8125 35.8124 8.34375 32.9062C7.96875 30.6093 6.1875 28.7812 3.89062 28.4531V19.8281H42.375V22.0312C42.375 22.4999 42.75 22.8749 43.2187 22.8749C43.6875 22.8749 44.0625 22.4999 44.0625 22.0312V19.7812H56.2031V28.4062C53.2969 28.8749 51.2812 31.5937 51.75 34.4999C52.0312 36.8437 53.8125 38.6249 56.1562 38.9999Z" fill="#FF3D00"/>
<path d="M43.1719 34.9687C42.7031 34.9687 42.375 35.3438 42.3281 35.7656V41.2031C42.3281 41.6719 42.7031 42.0469 43.1719 42.0469C43.6406 42.0469 44.0156 41.6719 44.0156 41.2031V35.8125C44.0156 35.3438 43.6406 34.9687 43.1719 34.9687ZM43.1719 25.4063C42.7031 25.4063 42.375 25.7813 42.3281 26.2031V31.6406C42.3281 32.1094 42.7031 32.4844 43.1719 32.4844C43.6406 32.4844 44.0156 32.1094 44.0156 31.6406V26.2031C44.0156 25.7813 43.6406 25.4063 43.1719 25.4063ZM12.7969 26.7187H22.9688C23.4375 26.7187 23.8125 26.3438 23.8125 25.875C23.8125 25.4063 23.4375 25.0781 22.9688 25.0781H12.7969C12.3281 25.0781 11.9531 25.4531 11.9531 25.9219C11.9531 26.3906 12.3281 26.7187 12.7969 26.7187ZM33.1406 30.2812H12.7969C12.3281 30.2812 11.9531 30.6563 11.9531 31.125C11.9531 31.5938 12.3281 31.9687 12.7969 31.9687H33.1406C33.6094 31.9687 33.9844 31.5938 33.9844 31.125C33.9844 30.6563 33.6094 30.2812 33.1406 30.2812ZM33.1406 35.4844H12.7969C12.3281 35.4844 11.9531 35.8594 11.9531 36.3281C11.9531 36.7969 12.3281 37.1719 12.7969 37.1719H33.1406C33.6094 37.1719 33.9844 36.7969 33.9844 36.3281C33.9844 35.8594 33.6094 35.4844 33.1406 35.4844ZM33.1406 40.6875H12.7969C12.3281 40.6875 11.9531 41.0625 11.9531 41.5312C11.9531 42 12.3281 42.375 12.7969 42.375H33.1406C33.6094 42.375 33.9844 42 33.9844 41.5312C33.9844 41.0625 33.6094 40.6875 33.1406 40.6875Z" fill="#FF3D00"/>
</svg>
